<?xml version="1.0" encoding="UTF-8"?>
<svg version="1.1" xmlns="http://www.w3.org/2000/svg" width="165" height="154">
<path d="M0 0 C4.70366381 3.27542581 7.86190235 7.39820704 9.6875 12.875 C10.39400536 20.0442921 10.01956294 25.95046532 5.6875 31.875 C0.86907329 36.91753958 -4.6359769 39.52769345 -11.57421875 40.04296875 C-17.92439518 39.74374578 -22.56655203 36.97420556 -27.3125 32.875 C-31.79068884 27.85400039 -32.61684092 22.69920266 -32.53125 16.18359375 C-31.99603854 10.53520142 -29.20180568 5.87234194 -25.3125 1.875 C-17.37320649 -3.63427611 -8.63949666 -4.98369447 0 0 Z " fill="#FFFFFF" transform="translate(100.3125,50.125)"/>
<path d="M0 0 C2.97 0 5.94 0 9 0 C7.39208221 13.30763537 4.30832704 23.38380433 -4 34 C-4.50015625 34.68835938 -5.0003125 35.37671875 -5.515625 36.0859375 C-13.67876411 46.51661525 -27.01104536 53.47537008 -39.96875 55.453125 C-42.30629941 55.7026387 -44.65322822 55.8619546 -47 56 C-47 53.03 -47 50.06 -47 47 C-46.34515625 46.91363281 -45.6903125 46.82726562 -45.015625 46.73828125 C-31.30686566 44.62775192 -19.20489394 39.05299242 -10.40625 28.0546875 C-4.37632572 19.24429813 -1.75624335 10.41421497 0 0 Z " fill="#299051" transform="translate(139,71)"/>
<path d="M0 0 C2.97 0 5.94 0 9 0 C9.23074219 1.03898437 9.46148437 2.07796875 9.69921875 3.1484375 C12.96620607 17.35258184 17.51723932 29.2825184 29.93359375 38.078125 C38.35790412 43.18636925 46.21929684 46.11084517 56 47 C56 49.97 56 52.94 56 56 C43.05393062 55.4115423 32.08367971 51.08870711 22 43 C21.36578125 42.52820313 20.7315625 42.05640625 20.078125 41.5703125 C7.71600953 31.8884787 2.50281147 16.95582462 0 2 C0 1.34 0 0.68 0 0 Z " fill="#278F4F" transform="translate(30,71)"/>
<path d="M0 0 C12.10106795 -1.23480285 24.64990351 4.73095947 34 12 C47.57201082 23.52093523 53.92908835 37.61524168 56 55 C53.03 55 50.06 55 47 55 C46.78085938 53.97261719 46.56171875 52.94523437 46.3359375 51.88671875 C43.22808766 38.00722934 38.48587333 27.09879575 27 18 C18.50303873 12.66048943 9.84719094 9.7175333 0 8 C0 5.36 0 2.72 0 0 Z " fill="#F5A146" transform="translate(92,10)"/>
<path d="M0 0 C1.85625 0.0309375 1.85625 0.0309375 3.75 0.0625 C3.75 2.7025 3.75 5.3425 3.75 8.0625 C2.80640625 8.28164063 1.8628125 8.50078125 0.890625 8.7265625 C-14.13796003 12.36711276 -26.75880396 17.71332896 -35.3203125 31.36328125 C-39.38152623 39.00142173 -41.76652065 46.55721839 -43.25 55.0625 C-46.22 55.0625 -49.19 55.0625 -52.25 55.0625 C-49.74431771 36.68749657 -42.95462235 23.12144875 -28.77734375 10.9375 C-20.85156138 4.95772273 -10.11927495 -0.16865458 0 0 Z " fill="#F5A146" transform="translate(82.25,9.9375)"/>
<path d="M0 0 C2.31 1.98 4.62 3.96 7 6 C6.67 6.99 6.34 7.98 6 9 C5.34 9 4.68 9 4 9 C3.67 9.99 3.34 10.98 3 12 C2.34 12 1.68 12 1 12 C0.34 12.66 -0.32 13.32 -1 14 C-1.66 14.66 -2.32 15.32 -3 16 C-3.66 16 -4.32 16 -5 16 C-5 16.66 -5 17.32 -5 18 C-7.88575819 17.60196439 -8.82189513 17.20990931 -10.75 14.9375 C-11.1625 14.298125 -11.575 13.65875 -12 13 C-11.505 14.1446875 -11.505 14.1446875 -11 15.3125 C-10 18 -10 18 -10 21 C-11.875 20.75 -11.875 20.75 -14 20 C-15.25 17.9375 -15.25 17.9375 -16 16 C-16.495 16.495 -16.495 16.495 -17 17 C-16.505 17.61875 -16.01 18.2375 -15.5 18.875 C-14 21 -14 21 -14 23 C-15.65 22.67 -17.3 22.34 -19 22 C-19 22.99 -19 23.98 -19 25 C-20.7015625 25.2165625 -20.7015625 25.2165625 -22.4375 25.4375 C-25.80777201 25.61171478 -25.80777201 25.61171478 -27 27 C-28.36125 26.9690625 -28.36125 26.9690625 -29.75 26.9375 C-33.06206383 27.00119354 -34.98003252 27.77568886 -38 29 C-38.99 28.67 -39.98 28.34 -41 28 C-41.33 28.33 -41.66 28.66 -42 29 C-43.66611905 29.042721 -45.33382885 29.04063832 -47 29 C-47.66 29 -48.32 29 -49 29 C-49.825 28.814375 -50.65 28.62875 -51.5 28.4375 C-53.98875759 27.74658685 -53.98875759 27.74658685 -56 29 C-56.66 28.67 -57.32 28.34 -58 28 C-58 27.34 -58 26.68 -58 26 C-58.66 26 -59.32 26 -60 26 C-60 26.66 -60 27.32 -60 28 C-60.99 28 -61.98 28 -63 28 C-62.43768609 24.06380262 -61.38314183 21.20807554 -59 18 C-58.01 18 -57.02 18 -56 18 C-55.67 20.31 -55.34 22.62 -55 25 C-53.70366379 23.93354885 -53.70366379 23.93354885 -53.9375 21.4375 C-53.958125 20.633125 -53.97875 19.82875 -54 19 C-50.98968256 18.06576355 -50.13349732 17.95550089 -47 19 C-42.79443285 19.15576175 -39.09648136 18.87825612 -35 18 C-31.66666667 17.33333333 -28.33333333 16.66666667 -25 16 C-24.34 16.99 -23.68 17.98 -23 19 C-23 17.35 -23 15.7 -23 14 C-21.1746875 13.319375 -21.1746875 13.319375 -19.3125 12.625 C-18.58417969 12.34914062 -17.85585937 12.07328125 -17.10546875 11.7890625 C-15.45364196 11.17001053 -13.7911087 10.57951607 -12.125 10 C-9.67339393 9.06981128 -9.67339393 9.06981128 -8 6 C-6.68 6 -5.36 6 -4 6 C-3.67 5.01 -3.34 4.02 -3 3 C-2.34 3 -1.68 3 -1 3 C-0.67 2.01 -0.34 1.02 0 0 Z M-6 8 C-5.34 9.65 -4.68 11.3 -4 13 C-3.67 12.34 -3.34 11.68 -3 11 C-3.99 10.01 -4.98 9.02 -6 8 Z M-31 20 C-30.67 21.65 -30.34 23.3 -30 25 C-29.67 24.01 -29.34 23.02 -29 22 C-28.01 22 -27.02 22 -26 22 C-26.33 21.34 -26.66 20.68 -27 20 C-28.32 20 -29.64 20 -31 20 Z M-38 21 C-37.67 22.65 -37.34 24.3 -37 26 C-36.67 25.01 -36.34 24.02 -36 23 C-36.66 22.34 -37.32 21.68 -38 21 Z M-50 22 C-49.01 23.485 -49.01 23.485 -48 25 C-47.34 24.67 -46.68 24.34 -46 24 C-47.32 23.34 -48.64 22.68 -50 22 Z M-44 22 C-42.515 22.99 -42.515 22.99 -41 24 C-41 23.34 -41 22.68 -41 22 C-41.99 22 -42.98 22 -44 22 Z M-45 25 C-44 27 -44 27 -44 27 Z " fill="#FFFFFF" transform="translate(135,116)"/>
<path d="M0 0 C2.97 0 5.94 0 9 0 C7.55458826 12.88410121 2.18962069 22.85813267 -8 31 C-14.47178719 35.04734092 -21.30144679 38 -29 38 C-29 35.03 -29 32.06 -29 29 C-27.72125 28.79375 -26.4425 28.5875 -25.125 28.375 C-17.02267462 26.53762228 -9.98681182 22.33695871 -5.25 15.43359375 C-2.7454645 10.55757619 -1.37012397 5.28706663 0 0 Z " fill="#F5A248" transform="translate(121,71)"/>
<path d="M0 0 C0 2.64 0 5.28 0 8 C-0.7734375 8.21914063 -1.546875 8.43828125 -2.34375 8.6640625 C-12.41492064 11.73028525 -19.09397299 15.50265571 -24.74609375 24.54296875 C-26.77766899 28.52384361 -27.96826764 32.66491404 -29 37 C-31.97 37 -34.94 37 -38 37 C-36.03419994 24.49036323 -31.12215892 14.43673069 -21.0234375 6.43359375 C-14.69935356 2.21333853 -7.68556138 -0.59119703 0 0 Z " fill="#2A9152" transform="translate(86,28)"/>
<path d="M0 0 C2.97 0 5.94 0 9 0 C9.32871094 1.2684375 9.32871094 1.2684375 9.6640625 2.5625 C12.37877223 12.27365674 15.20451828 18.80983972 23.8125 24.375 C28.46853027 26.97502904 32.75339052 28.15377266 38 29 C38 31.97 38 34.94 38 38 C26.23225801 37.14416422 17.17944107 31.72928712 9.25 23.125 C3.30480253 15.96096933 1.27999143 9.16204393 0 0 Z " fill="#F5A147" transform="translate(48,71)"/>
<path d="M0 0 C10.98689401 0.25714007 19.00348834 4.26587946 26.9609375 11.7734375 C33.09829673 18.47515161 38 27.69168388 38 37 C35.03 37 32.06 37 29 37 C28.84144531 36.3709375 28.68289062 35.741875 28.51953125 35.09375 C26.00710093 25.87687857 22.20956569 18.32043007 14 13 C9.47831455 10.81591428 4.89128527 9.13567773 0 8 C0 5.36 0 2.72 0 0 Z " fill="#2B9252" transform="translate(92,28)"/>
<path d="M0 0 C2.97 0.99 5.94 1.98 9 3 C8.67 3.99 8.34 4.98 8 6 C9.65 6.33 11.3 6.66 13 7 C13.144375 6.360625 13.28875 5.72125 13.4375 5.0625 C14 3 14 3 15 2 C16.99958364 1.95919217 19.00045254 1.95745644 21 2 C20.34 4.31 19.68 6.62 19 9 C17.02 9 15.04 9 13 9 C12.67 9.99 12.34 10.98 12 12 C11.67 12.33 11.34 12.66 11 13 C11.33 13.99 11.66 14.98 12 16 C12.66 15.34 13.32 14.68 14 14 C14.99 14 15.98 14 17 14 C17.66 13.67 18.32 13.34 19 13 C19.33 13.66 19.66 14.32 20 15 C20.33 14.34 20.66 13.68 21 13 C21.33 13 21.66 13 22 13 C22 12.01 22 11.02 22 10 C22.99 10.66 23.98 11.32 25 12 C24.67 11.34 24.34 10.68 24 10 C26.64 10.66 29.28 11.32 32 12 C31.67 13.65 31.34 15.3 31 17 C30.01 17 29.02 17 28 17 C28 17.99 28 18.98 28 20 C26.68 20 25.36 20 24 20 C23.67 20.99 23.34 21.98 23 23 C12.44191344 24.51708428 12.44191344 24.51708428 8 22 C8 21.34 8 20.68 8 20 C6.68 20 5.36 20 4 20 C4 19.01 4 18.02 4 17 C3.01 17 2.02 17 1 17 C1 15.68 1 14.36 1 13 C0.34 13 -0.32 13 -1 13 C-2 5.375 -2 5.375 -2 2 C-1.34 2 -0.68 2 0 2 C0 1.34 0 0.68 0 0 Z " fill="#D8D8E5" transform="translate(73,63)"/>
<path d="M0 0 C0.33 0.99 0.66 1.98 1 3 C2.32 3 3.64 3 5 3 C5 3.99 5 4.98 5 6 C5.99 6.33 6.98 6.66 8 7 C8 7.99 8 8.98 8 10 C8.66 10 9.32 10 10 10 C11 17.625 11 17.625 11 21 C10.34 21 9.68 21 9 21 C9 21.66 9 22.32 9 23 C6.03 22.01 3.06 21.02 0 20 C0 18.35 0 16.7 0 15 C0.66 14.67 1.32 14.34 2 14 C1.67 13.01 1.34 12.02 1 11 C0.01 11 -0.98 11 -2 11 C-2.33 10.01 -2.66 9.02 -3 8 C-3.66 8.66 -4.32 9.32 -5 10 C-5.33 9.34 -5.66 8.68 -6 8 C-6.639375 8.185625 -7.27875 8.37125 -7.9375 8.5625 C-8.618125 8.706875 -9.29875 8.85125 -10 9 C-10.33 8.67 -10.66 8.34 -11 8 C-11.33 8.66 -11.66 9.32 -12 10 C-12.33 10 -12.66 10 -13 10 C-13 10.99 -13 11.98 -13 13 C-13.99 13.495 -13.99 13.495 -15 14 C-17.35981813 13.06421005 -19.69631264 12.06652192 -22 11 C-21.67 9.35 -21.34 7.7 -21 6 C-20.34 6 -19.68 6 -19 6 C-19 5.01 -19 4.02 -19 3 C-17.68 3 -16.36 3 -15 3 C-15 2.34 -15 1.68 -15 1 C-10.05183286 -1.80396138 -5.38317715 -0.77350507 0 0 Z " fill="#D7D7E5" transform="translate(96,51)"/>
<path d="M0 0 C0.33 1.32 0.66 2.64 1 4 C1.66 4 2.32 4 3 4 C3.33 2.68 3.66 1.36 4 0 C4.33 1.32 4.66 2.64 5 4 C5.66 3.34 6.32 2.68 7 2 C7.33 3.32 7.66 4.64 8 6 C9.32 6.33 10.64 6.66 12 7 C11.67 7.33 11.34 7.66 11 8 C11.66 8.66 12.32 9.32 13 10 C12.01 10.495 12.01 10.495 11 11 C11.66 11.66 12.32 12.32 13 13 C13 13.66 13 14.32 13 15 C12.01 15.495 12.01 15.495 11 16 C13.31 16.99 15.62 17.98 18 19 C18.33 18.34 18.66 17.68 19 17 C19 18.65 19 20.3 19 22 C18.401875 21.67 17.80375 21.34 17.1875 21 C14.94613529 19.79212012 14.94613529 19.79212012 12 20 C12.33 20.66 12.66 21.32 13 22 C11.68 21.34 10.36 20.68 9 20 C9.33 21.32 9.66 22.64 10 24 C9.01 23.67 8.02 23.34 7 23 C6.67 23.66 6.34 24.32 6 25 C5.67 24.67 5.34 24.34 5 24 C4.34 24.99 3.68 25.98 3 27 C2.67 25.68 2.34 24.36 2 23 C1.34 24.32 0.68 25.64 0 27 C-0.33 26.01 -0.66 25.02 -1 24 C-1.66 24.33 -2.32 24.66 -3 25 C-3 24.01 -3 23.02 -3 22 C-3.99 22.66 -4.98 23.32 -6 24 C-4.7096828 21.12160009 -3.54593619 18.90945214 -1 17 C2.1875 16.3125 2.1875 16.3125 5 16 C5.66 14.02 6.32 12.04 7 10 C3.51190809 10.77030122 3.51190809 10.77030122 0 12 C-0.33 12.99 -0.66 13.98 -1 15 C-2.8125 15.8125 -2.8125 15.8125 -5 16 C-7.25 15.0625 -7.25 15.0625 -9 14 C-8.34 13.01 -7.68 12.02 -7 11 C-9.31 10.01 -11.62 9.02 -14 8 C-14 8.66 -14 9.32 -14 10 C-14.66 10 -15.32 10 -16 10 C-16.33 10.99 -16.66 11.98 -17 13 C-17.66 13.99 -18.32 14.98 -19 16 C-19.28571429 8.57142857 -19.28571429 8.57142857 -17 5 C-17 6.32 -17 7.64 -17 9 C-16.34 9 -15.68 9 -15 9 C-14.67 7.68 -14.34 6.36 -14 5 C-13.67 5.66 -13.34 6.32 -13 7 C-11.11235097 7.68472665 -11.11235097 7.68472665 -8.9375 8.125 C-7.83728516 8.37636719 -7.83728516 8.37636719 -6.71484375 8.6328125 C-6.14894531 8.75398438 -5.58304688 8.87515625 -5 9 C-5 8.01 -5 7.02 -5 6 C-5 5.01 -5 4.02 -5 3 C-4.34 3.33 -3.68 3.66 -3 4 C-2.67 3.34 -2.34 2.68 -2 2 C-1.67 2.33 -1.34 2.66 -1 3 C-0.67 2.01 -0.34 1.02 0 0 Z " fill="#FFFFFF" transform="translate(87,55)"/>
<path d="M0 0 C0.99 0.33 1.98 0.66 3 1 C3.66015625 2.99609375 3.66015625 2.99609375 4.0625 5.4375 C4.63171515 9.14163657 4.63171515 9.14163657 7 12 C7.33 13.175625 7.66 14.35125 8 15.5625 C8.33 16.696875 8.66 17.83125 9 19 C9.66 19.33 10.32 19.66 11 20 C10 23 10 23 9 24 C10.65 24 12.3 24 14 24 C13.49396008 26.16874252 13.00016187 27.99967627 12 30 C12.66 29.34 13.32 28.68 14 28 C14.99 28 15.98 28 17 28 C15.79618552 30.49361571 14.54571278 32.68143083 13 35 C13.33 35.99 13.66 36.98 14 38 C12.125 37.75 12.125 37.75 10 37 C8.75 34.9375 8.75 34.9375 8 33 C7.34 33 6.68 33 6 33 C6 32.01 6 31.02 6 30 C5.01 29.67 4.02 29.34 3 29 C1.28773948 26.1798062 0.1940605 23.07044129 -1 20 C-0.34 19.67 0.32 19.34 1 19 C-0.32 18.67 -1.64 18.34 -3 18 C-3 16.35 -3 14.7 -3 13 C-3.66 12.67 -4.32 12.34 -5 12 C-5 11.01 -5 10.02 -5 9 C-3.02 8.67 -1.04 8.34 1 8 C0.67 7.34 0.34 6.68 0 6 C-2.31 6.33 -4.62 6.66 -7 7 C-7 6.01 -7 5.02 -7 4 C-3.535 3.505 -3.535 3.505 0 3 C0 2.01 0 1.02 0 0 Z M3 13 C1.02 13.99 1.02 13.99 -1 15 C-0.01 15.495 -0.01 15.495 1 16 C1.99 15.67 2.98 15.34 4 15 C3.67 14.34 3.34 13.68 3 13 Z " fill="#FFFFFF" transform="translate(22,83)"/>
<path d="M0 0 C-0.185625 0.639375 -0.37125 1.27875 -0.5625 1.9375 C-0.706875 2.618125 -0.85125 3.29875 -1 4 C-0.67 4.33 -0.34 4.66 0 5 C0.04063832 6.66617115 0.042721 8.33388095 0 10 C-0.99 10.495 -0.99 10.495 -2 11 C-1.79375 11.5775 -1.5875 12.155 -1.375 12.75 C-0.89936166 15.60383004 -1.69191794 16.4565071 -3 19 C-3.38749213 21.32495277 -3.72982839 23.65851268 -4 26 C-4.66 26 -5.32 26 -6 26 C-6 26.99 -6 27.98 -6 29 C-9.34373475 28.44271087 -12.03312999 27.64826111 -15 26 C-14.41816665 21.4616999 -13.17655255 17.40775302 -11.69921875 13.10546875 C-10.33502734 8.99765217 -9.87663136 5.31790255 -10 1 C-6.61981469 -0.04005702 -3.5219721 -0.08004482 0 0 Z M-9 13 C-5 14 -5 14 -5 14 Z " fill="#FFFFFF" transform="translate(165,71)"/>
<path d="M0 0 C1.875 0.3125 1.875 0.3125 4 1 C4.66 1.99 5.32 2.98 6 4 C7.64034193 4.72904086 9.31301918 5.38655243 11 6 C13.00751815 6.98482022 15.00934459 7.98152514 17 9 C16.125 13.75 16.125 13.75 15 16 C15.66 16.33 16.32 16.66 17 17 C17.99 15.02 18.98 13.04 20 11 C21.98 11.66 23.96 12.32 26 13 C25.01 14.485 25.01 14.485 24 16 C24 16.99 24 17.98 24 19 C23.01 19 22.02 19 21 19 C21.66 19.33 22.32 19.66 23 20 C23 20.66 23 21.32 23 22 C18.43545749 21.45660208 15.0271824 20.20536179 11 18 C11.33 16.35 11.66 14.7 12 13 C11.236875 13.33 10.47375 13.66 9.6875 14 C7 15 7 15 4 15 C4 14.34 4 13.68 4 13 C3.01 13 2.02 13 1 13 C1 12.34 1 11.68 1 11 C0.01 11 -0.98 11 -2 11 C-2 10.34 -2 9.68 -2 9 C-2.99 8.67 -3.98 8.34 -5 8 C-3.62845496 5.04590299 -2.01136276 2.55991624 0 0 Z M-1 6 C-1 9 -1 9 -1 9 Z M11 10 C11.99 11.485 11.99 11.485 13 13 C13.33 12.01 13.66 11.02 14 10 C13.01 10 12.02 10 11 10 Z " fill="#FFFFFF" transform="translate(44,119)"/>
<path d="M0 0 C0.99 0 1.98 0 3 0 C3.33 2.31 3.66 4.62 4 7 C5.29633621 5.93354885 5.29633621 5.93354885 5.0625 3.4375 C5.041875 2.633125 5.02125 1.82875 5 1 C8.01031744 0.06576355 8.86650268 -0.04449911 12 1 C14.33006911 1.35543427 16.66327016 1.6913753 19 2 C19.33 3.32 19.66 4.64 20 6 C19.34 6 18.68 6 18 6 C17.67 5.67 17.34 5.34 17 5 C17 6.98 17 8.96 17 11 C10 11 10 11 7.5 10.4375 C5.01124241 9.74658685 5.01124241 9.74658685 3 11 C2.34 10.67 1.68 10.34 1 10 C1 9.34 1 8.68 1 8 C0.34 8 -0.32 8 -1 8 C-1 8.66 -1 9.32 -1 10 C-1.99 10 -2.98 10 -4 10 C-3.43768609 6.06380262 -2.38314183 3.20807554 0 0 Z M9 4 C9.99 5.485 9.99 5.485 11 7 C11.66 6.67 12.32 6.34 13 6 C11.68 5.34 10.36 4.68 9 4 Z M14 7 C15 9 15 9 15 9 Z " fill="#FFFFFF" transform="translate(76,134)"/>
<path d="M0 0 C2.97 0.99 5.94 1.98 9 3 C8.67 3.99 8.34 4.98 8 6 C9.65 6.33 11.3 6.66 13 7 C13.144375 6.360625 13.28875 5.72125 13.4375 5.0625 C14 3 14 3 15 2 C16.99958364 1.95919217 19.00045254 1.95745644 21 2 C20.34 4.31 19.68 6.62 19 9 C17.02 9 15.04 9 13 9 C12.67 9.99 12.34 10.98 12 12 C9.52260646 12.90837763 7.66420516 13 5 13 C5.33 12.34 5.66 11.68 6 11 C3.69 11.66 1.38 12.32 -1 13 C-2 5.375 -2 5.375 -2 2 C-1.34 2 -0.68 2 0 2 C0 1.34 0 0.68 0 0 Z " fill="#A1A2C7" transform="translate(73,63)"/>
<path d="M0 0 C0 1.65 0 3.3 0 5 C-0.33 4.34 -0.66 3.68 -1 3 C-2.32 3 -3.64 3 -5 3 C-5.66 2.34 -6.32 1.68 -7 1 C-11.69619661 -0.06102674 -16.34277373 -0.35209795 -21 1 C-21 1.66 -21 2.32 -21 3 C-22.32 3 -23.64 3 -25 3 C-25 3.99 -25 4.98 -25 6 C-26.31200404 7.35432675 -27.64631404 8.68733482 -29 10 C-29.33 10.99 -29.66 11.98 -30 13 C-30.66 13 -31.32 13 -32 13 C-32.4802189 8.96616127 -32.20997377 7.31814207 -29.9375 3.875 C-21.76776295 -4.96781198 -10.21033805 -6.17994145 0 0 Z " fill="#FFFFFF" transform="translate(102,51)"/>
<path d="M0 0 C2.31 1.98 4.62 3.96 7 6 C6.67 6.99 6.34 7.98 6 9 C5.34 9 4.68 9 4 9 C3.67 9.99 3.34 10.98 3 12 C2.34 12 1.68 12 1 12 C-0.37310707 13.29233607 -1.71034824 14.62437146 -3 16 C-3.99 15.67 -4.98 15.34 -6 15 C-6.6875 12.9375 -6.6875 12.9375 -7 11 C-6.01 11 -5.02 11 -4 11 C-4.99 10.01 -5.98 9.02 -7 8 C-7.33 8.66 -7.66 9.32 -8 10 C-8 8.68 -8 7.36 -8 6 C-6.68 6 -5.36 6 -4 6 C-3.67 5.01 -3.34 4.02 -3 3 C-2.34 3 -1.68 3 -1 3 C-0.67 2.01 -0.34 1.02 0 0 Z " fill="#FFFFFF" transform="translate(135,116)"/>
<path d="M0 0 C0.99 0 1.98 0 3 0 C3 0.66 3 1.32 3 2 C3.99 2 4.98 2 6 2 C5.67 3.32 5.34 4.64 5 6 C5.99 6.33 6.98 6.66 8 7 C7.525625 7.4125 7.05125 7.825 6.5625 8.25 C4.83733482 10.182185 4.43415125 11.48192275 4 14 C2.3125 14.75 2.3125 14.75 0 15 C-2.75 13.0625 -2.75 13.0625 -5 11 C-4.625 8.5625 -4.625 8.5625 -4 6 C-3.34 5.67 -2.68 5.34 -2 5 C-1.27840576 3.35636866 -0.60648579 1.68949614 0 0 Z M2 2 C3 4 3 4 3 4 Z M-2 9 C-1.01 10.485 -1.01 10.485 0 12 C0.66 11.67 1.32 11.34 2 11 C0.68 10.34 -0.64 9.68 -2 9 Z " fill="#FFFFFF" transform="translate(146,102)"/>
<path d="M0 0 C0.99 0.33 1.98 0.66 3 1 C3.75 3 3.75 3 4 5 C3.67 5.33 3.34 5.66 3 6 C3.28604898 7.67542976 3.61781233 9.34385343 4 11 C1.11424181 10.60196439 0.17810487 10.20990931 -1.75 7.9375 C-2.36875 6.9784375 -2.36875 6.9784375 -3 6 C-2.505 7.1446875 -2.505 7.1446875 -2 8.3125 C-1 11 -1 11 -1 14 C-2.875 13.75 -2.875 13.75 -5 13 C-5.6837045 11.67532254 -6.34964186 10.34136367 -7 9 C-9.01566157 7.86179308 -9.01566157 7.86179308 -11 7 C-9.71186658 6.16121545 -8.41936744 5.32913217 -7.125 4.5 C-6.40570313 4.0359375 -5.68640625 3.571875 -4.9453125 3.09375 C-3 2 -3 2 -1 2 C-0.67 1.34 -0.34 0.68 0 0 Z " fill="#FFFFFF" transform="translate(126,123)"/>
<path d="M0 0 C1.98 0.66 3.96 1.32 6 2 C5.01 3.485 5.01 3.485 4 5 C4 5.99 4 6.98 4 8 C3.01 8 2.02 8 1 8 C1.66 8.33 2.32 8.66 3 9 C3 9.66 3 10.32 3 11 C-1.56454251 10.45660208 -4.9728176 9.20536179 -9 7 C-8.34 5.68 -7.68 4.36 -7 3 C-6.67 3.99 -6.34 4.98 -6 6 C-5.01 6 -4.02 6 -3 6 C-2.01 4.02 -1.02 2.04 0 0 Z " fill="#FFFFFF" transform="translate(64,130)"/>
<path d="M0 0 C0.99 0 1.98 0 3 0 C3.33 2.31 3.66 4.62 4 7 C4.99 6.67 5.98 6.34 7 6 C7.66 6.33 8.32 6.66 9 7 C9 7.66 9 8.32 9 9 C7.02253397 9.73080266 5.01927511 10.39421747 3 11 C2.34 10.67 1.68 10.34 1 10 C1 9.34 1 8.68 1 8 C0.34 8 -0.32 8 -1 8 C-1 8.66 -1 9.32 -1 10 C-1.99 10 -2.98 10 -4 10 C-3.43768609 6.06380262 -2.38314183 3.20807554 0 0 Z " fill="#FFFFFF" transform="translate(76,134)"/>
<path d="M0 0 C0.66 0.33 1.32 0.66 2 1 C2 1.66 2 2.32 2 3 C3.32 3 4.64 3 6 3 C6 3.99 6 4.98 6 6 C6.99 6.33 7.98 6.66 9 7 C7.71264403 9.57471193 6.71510189 9.70416657 4.0625 10.6875 C3.35222656 10.95949219 2.64195313 11.23148438 1.91015625 11.51171875 C0 12 0 12 -2 11 C-2.19622241 6.78121808 -1.80230168 3.82989106 0 0 Z " fill="#E2E2EC" transform="translate(95,51)"/>
<path d="M0 0 C3.3 0 6.6 0 10 0 C10 2.31 10 4.62 10 7 C6.7 7 3.4 7 0 7 C0 4.69 0 2.38 0 0 Z " fill="#FFFFFF" transform="translate(13,70)"/>
<path d="M0 0 C5.66442374 0.36504064 10.00703705 1.0554321 15 4 C15 5.65 15 7.3 15 9 C14.67 8.34 14.34 7.68 14 7 C12.68 7 11.36 7 10 7 C9.34 6.34 8.68 5.68 8 5 C5.86737659 4.50141027 5.86737659 4.50141027 3.5 4.3125 C2.7059375 4.22613281 1.911875 4.13976563 1.09375 4.05078125 C-1.06035882 3.83485902 -1.06035882 3.83485902 -3 5 C-3.99 4.34 -4.98 3.68 -6 3 C-4.02 2.67 -2.04 2.34 0 2 C0 1.34 0 0.68 0 0 Z " fill="#FFFFFF" transform="translate(87,47)"/>
<path d="M0 0 C3.32656613 1.88505414 3.95908964 2.86817772 5.125 6.625 C5.41375 7.73875 5.7025 8.8525 6 10 C6.66 10.33 7.32 10.66 8 11 C7.67 11.99 7.34 12.98 7 14 C4.69 13.67 2.38 13.34 0 13 C0 13.66 0 14.32 0 15 C-1.32 14.34 -2.64 13.68 -4 13 C-4 12.34 -4 11.68 -4 11 C-2.02 10.01 -0.04 9.02 2 8 C1.67 7.05125 1.34 6.1025 1 5.125 C0 2 0 2 0 0 Z " fill="#FFFFFF" transform="translate(25,92)"/>
<path d="M0 0 C3.3 0 6.6 0 10 0 C10.33 1.32 10.66 2.64 11 4 C9.71086513 4.67154933 8.41859796 5.33708859 7.125 6 C6.40570312 6.37125 5.68640625 6.7425 4.9453125 7.125 C3 8 3 8 1 8 C1.33 6.68 1.66 5.36 2 4 C1.34 3.67 0.68 3.34 0 3 C0 2.01 0 1.02 0 0 Z " fill="#FFFFFF" transform="translate(13,78)"/>
<path d="M0 0 C2.86632997 1.05098766 3.83006643 1.66862954 5.25 4.4375 C6 7 6 7 6 10 C5.01 10.495 5.01 10.495 4 11 C1.64018187 10.06421005 -0.69631264 9.06652192 -3 8 C-2.67 6.35 -2.34 4.7 -2 3 C-1.34 3 -0.68 3 0 3 C0 2.01 0 1.02 0 0 Z " fill="#C8C7DC" transform="translate(77,54)"/>
<path d="M0 0 C5.17469679 1.2936742 5.91755537 2.80445036 9 7 C9 7.66 9 8.32 9 9 C7.35 8.67 5.7 8.34 4 8 C4 8.99 4 9.98 4 11 C3.01 11 2.02 11 1 11 C0.67 7.37 0.34 3.74 0 0 Z " fill="#FFFFFF" transform="translate(112,130)"/>
<path d="M0 0 C2.97 0.99 5.94 1.98 9 3 C8.67 3.99 8.34 4.98 8 6 C3.545 6.495 3.545 6.495 -1 7 C-1.33 5.35 -1.66 3.7 -2 2 C-1.34 2 -0.68 2 0 2 C0 1.34 0 0.68 0 0 Z " fill="#D1D1E1" transform="translate(73,63)"/>
<path d="M0 0 C0.99 0.33 1.98 0.66 3 1 C3.73046875 2.84765625 3.73046875 2.84765625 4.1875 5.0625 C4.34605469 5.79597656 4.50460938 6.52945313 4.66796875 7.28515625 C4.77753906 7.85105469 4.88710938 8.41695312 5 9 C3.0625 8.625 3.0625 8.625 1 8 C0.67 7.34 0.34 6.68 0 6 C-2.31 6.33 -4.62 6.66 -7 7 C-7 6.01 -7 5.02 -7 4 C-3.535 3.505 -3.535 3.505 0 3 C0 2.01 0 1.02 0 0 Z " fill="#FFFFFF" transform="translate(22,83)"/>
<path d="M0 0 C2.67857172 0.36196915 4.60980914 0.73987276 6.875 2.25 C8 4 8 4 7.6875 6.6875 C7.460625 7.450625 7.23375 8.21375 7 9 C5.68 9.33 4.36 9.66 3 10 C2.34 8.35 1.68 6.7 1 5 C1.99 5 2.98 5 4 5 C3.01 4.01 2.02 3.02 1 2 C0.67 2.66 0.34 3.32 0 4 C0 2.68 0 1.36 0 0 Z " fill="#FFFFFF" transform="translate(127,122)"/>
<path d="M0 0 C4.22460725 3.66873787 5.9772021 6.47689134 7 12 C6.67 12.99 6.34 13.98 6 15 C5.34 14.34 4.68 13.68 4 13 C4 11.68 4 10.36 4 9 C3.34 9 2.68 9 2 9 C1.67 8.01 1.34 7.02 1 6 C0.34 5.34 -0.32 4.68 -1 4 C-0.625 1.875 -0.625 1.875 0 0 Z " fill="#FFFFFF" transform="translate(102,52)"/>
<path d="M0 0 C1.65 0.33 3.3 0.66 5 1 C4.67 1.66 4.34 2.32 4 3 C4.99 3.66 5.98 4.32 7 5 C6.01 5.33 5.02 5.66 4 6 C4 6.66 4 7.32 4 8 C2.35 8 0.7 8 -1 8 C-1.66 6.35 -2.32 4.7 -3 3 C-2.34 3 -1.68 3 -1 3 C-0.67 2.01 -0.34 1.02 0 0 Z " fill="#FFFFFF" transform="translate(26,104)"/>
<path d="M0 0 C0.33 0.99 0.66 1.98 1 3 C1.66 2.34 2.32 1.68 3 1 C2.67 3.64 2.34 6.28 2 9 C0.35 9 -1.3 9 -3 9 C-3 8.34 -3 7.68 -3 7 C-3.66 6.67 -4.32 6.34 -5 6 C-3.35 4.02 -1.7 2.04 0 0 Z " fill="#EBEBF2" transform="translate(84,76)"/>
<path d="M0 0 C-0.99 2.97 -1.98 5.94 -3 9 C-4.32 8.34 -5.64 7.68 -7 7 C-7 4.69 -7 2.38 -7 0 C-4.3333581 -1.33332095 -2.83319697 -0.67102033 0 0 Z " fill="#E9EAF1" transform="translate(95,52)"/>
<path d="M0 0 C1.65 0.33 3.3 0.66 5 1 C5 1.66 5 2.32 5 3 C4.01 3.495 4.01 3.495 3 4 C4.32 4.66 5.64 5.32 7 6 C6.67 6.99 6.34 7.98 6 9 C3.08482708 7.92598892 1.22189824 7.22189824 -1 5 C-0.625 2.375 -0.625 2.375 0 0 Z " fill="#FFFFFF" transform="translate(142,108)"/>
<path d="M0 0 C0.33 0 0.66 0 1 0 C1 1.65 1 3.3 1 5 C1.66 5 2.32 5 3 5 C3.33 6.32 3.66 7.64 4 9 C0.71303767 9.79953138 -0.71023192 10.09658936 -4 9 C-3.67 7.68 -3.34 6.36 -3 5 C-2.34 5 -1.68 5 -1 5 C-0.67 3.35 -0.34 1.7 0 0 Z " fill="#D4D4E3" transform="translate(89,77)"/>
<path d="M0 0 C2.31 0 4.62 0 7 0 C7.93423645 3.01031744 8.04449911 3.86650268 7 7 C2.545 6.01 2.545 6.01 -2 5 C-1.67 4.01 -1.34 3.02 -1 2 C-1 2.66 -1 3.32 -1 4 C0.65 3.67 2.3 3.34 4 3 C2.68 2.01 1.36 1.02 0 0 Z " fill="#FFFFFF" transform="translate(156,82)"/>
<path d="M0 0 C0 0.99 0 1.98 0 3 C-3.4019487 5.09350689 -6.05272412 5.17942163 -10 5 C-10 3.68 -10 2.36 -10 1 C-6.61981469 -0.04005702 -3.5219721 -0.08004482 0 0 Z " fill="#FFFFFF" transform="translate(165,71)"/>
<path d="M0 0 C2.00720923 0.28674418 4.0085944 0.61866701 6 1 C5.67 1.99 5.34 2.98 5 4 C4.67 3.67 4.34 3.34 4 3 C2.89163577 4.88316159 2.89163577 4.88316159 2 7 C2.33 7.66 2.66 8.32 3 9 C1.02 9.33 -0.96 9.66 -3 10 C-3 8.68 -3 7.36 -3 6 C-2.01 6 -1.02 6 0 6 C-0.2784375 4.7934375 -0.2784375 4.7934375 -0.5625 3.5625 C-0.706875 2.716875 -0.85125 1.87125 -1 1 C-0.67 0.67 -0.34 0.34 0 0 Z " fill="#FFFFFF" transform="translate(96,134)"/>
<path d="M0 0 C0.33 1.32 0.66 2.64 1 4 C1.66 4 2.32 4 3 4 C3.33 2.68 3.66 1.36 4 0 C4.33 0.66 4.66 1.32 5 2 C7.52733235 2.65555119 7.52733235 2.65555119 10 3 C9.67 3.66 9.34 4.32 9 5 C6.525 4.01 6.525 4.01 4 3 C4 3.66 4 4.32 4 5 C3.34 5 2.68 5 2 5 C1.67 5.99 1.34 6.98 1 8 C0.34 8.99 -0.32 9.98 -1 11 C-1.14285714 3.57142857 -1.14285714 3.57142857 0 0 Z " fill="#FFFFFF" transform="translate(69,60)"/>
<path d="M0 0 C0 1.98 0 3.96 0 6 C-4.75 6.125 -4.75 6.125 -7 5 C-6.67 3.68 -6.34 2.36 -6 1 C-3.92446352 0.4465236 -2.15634036 0 0 0 Z M-3 2 C-2 4 -2 4 -2 4 Z " fill="#FFFFFF" transform="translate(93,139)"/>
<path d="M0 0 C0.66 0 1.32 0 2 0 C2 2.97 2 5.94 2 9 C-1.3 8.67 -4.6 8.34 -8 8 C-8 7.67 -8 7.34 -8 7 C-5.36 7 -2.72 7 0 7 C0 4.69 0 2.38 0 0 Z " fill="#4EA570" transform="translate(84,118)"/>
<path d="M0 0 C0.33 0.66 0.66 1.32 1 2 C1.66 2.33 2.32 2.66 3 3 C3 5.97 3 8.94 3 12 C2.01 11.67 1.02 11.34 0 11 C-0.84098656 6.98195309 -1.05404945 3.98196457 0 0 Z " fill="#FFFFFF" transform="translate(69,66)"/>
<path d="M0 0 C0 0.99 0 1.98 0 3 C-0.66 3 -1.32 3 -2 3 C-2 3.66 -2 4.32 -2 5 C-4.97 4.01 -7.94 3.02 -11 2 C-6.78370866 -0.10814567 -4.60209225 -0.17700355 0 0 Z " fill="#D4D4E4" transform="translate(107,69)"/>
<path d="M0 0 C0.33 1.32 0.66 2.64 1 4 C1.66 4 2.32 4 3 4 C3 4.66 3 5.32 3 6 C2.34 6 1.68 6 1 6 C0.67 6.66 0.34 7.32 0 8 C-2.475 7.01 -2.475 7.01 -5 6 C-5 5.01 -5 4.02 -5 3 C-4.34 3.33 -3.68 3.66 -3 4 C-2.67 3.34 -2.34 2.68 -2 2 C-1.67 2.33 -1.34 2.66 -1 3 C-0.67 2.01 -0.34 1.02 0 0 Z " fill="#FFFFFF" transform="translate(87,55)"/>
<path d="M0 0 C0 0.66 0 1.32 0 2 C0.66 2.33 1.32 2.66 2 3 C1.34 4.65 0.68 6.3 0 8 C-0.66 7.01 -1.32 6.02 -2 5 C-2.99 5.495 -2.99 5.495 -4 6 C-4 5.01 -4 4.02 -4 3 C-4.99 3.66 -5.98 4.32 -7 5 C-5.22678182 1.07358831 -4.52021524 0 0 0 Z " fill="#FFFFFF" transform="translate(88,74)"/>
<path d="M0 0 C1.32 0 2.64 0 4 0 C4 0.66 4 1.32 4 2 C4.66 2.33 5.32 2.66 6 3 C4.329375 3.2165625 4.329375 3.2165625 2.625 3.4375 C-0.82142047 3.78372035 -0.82142047 3.78372035 -3 5 C-3.99 4.34 -4.98 3.68 -6 3 C-4.02 2.67 -2.04 2.34 0 2 C0 1.34 0 0.68 0 0 Z " fill="#FFFFFF" transform="translate(87,47)"/>
<path d="M0 0 C0.66 0.66 1.32 1.32 2 2 C4.57061311 2.64767793 4.57061311 2.64767793 7 3 C7.33 4.32 7.66 5.64 8 7 C7.01 7.33 6.02 7.66 5 8 C3 6 1 4 -1 2 C-0.67 1.34 -0.34 0.68 0 0 Z " fill="#FFFFFF" transform="translate(131,120)"/>
<path d="M0 0 C0.33 0.99 0.66 1.98 1 3 C2.65 3 4.3 3 6 3 C6 3.66 6 4.32 6 5 C3.03 5 0.06 5 -3 5 C-3 4.01 -3 3.02 -3 2 C-2.01 2 -1.02 2 0 2 C0 1.34 0 0.68 0 0 Z " fill="#FFFFFF" transform="translate(16,72)"/>
<path d="M0 0 C0.66 0.66 1.32 1.32 2 2 C1.34 3.32 0.68 4.64 0 6 C0.99 6 1.98 6 3 6 C2.1875 7.9375 2.1875 7.9375 1 10 C0.01 10.33 -0.98 10.66 -2 11 C-2.19622241 6.78121808 -1.80230168 3.82989106 0 0 Z " fill="#BABAD3" transform="translate(95,51)"/>
<path d="M0 0 C3.31562557 0.55260426 6.15062207 1.16825705 9 3 C9.33 3.99 9.66 4.98 10 6 C5.56909529 4.79157144 3.01887244 3.48331435 0 0 Z " fill="#3E9962" transform="translate(56,116)"/>
<path d="M0 0 C1.32 0 2.64 0 4 0 C3.25 4.75 3.25 4.75 1 7 C0.34 6.67 -0.32 6.34 -1 6 C-0.67 4.02 -0.34 2.04 0 0 Z " fill="#FFFFFF" transform="translate(57,128)"/>
<path d="M0 0 C1.32 0.33 2.64 0.66 4 1 C4.33 2.65 4.66 4.3 5 6 C4.01 6 3.02 6 2 6 C2 5.01 2 4.02 2 3 C1.34 3 0.68 3 0 3 C0 2.01 0 1.02 0 0 Z " fill="#FFFFFF" transform="translate(44,119)"/>
<path d="M0 0 C1.9375 0.75 1.9375 0.75 4 2 C4.75 4.125 4.75 4.125 5 6 C3.68 5.67 2.36 5.34 1 5 C0.67 3.35 0.34 1.7 0 0 Z " fill="#FFFFFF" transform="translate(125,128)"/>
<path d="M0 0 C4.455 0.99 4.455 0.99 9 2 C9 2.99 9 3.98 9 5 C6.03 4.01 3.06 3.02 0 2 C0 1.34 0 0.68 0 0 Z " fill="#FFFFFF" transform="translate(152,92)"/>
<path d="M0 0 C-1.32 0.99 -2.64 1.98 -4 3 C-3.34 3.66 -2.68 4.32 -2 5 C-3.65 5 -5.3 5 -7 5 C-7.33 3.68 -7.66 2.36 -8 1 C-3.375 -1.125 -3.375 -1.125 0 0 Z " fill="#FFFFFF" transform="translate(162,81)"/>
<path d="M0 0 C0.66 0.33 1.32 0.66 2 1 C1.3125 2.9375 1.3125 2.9375 0 5 C-2.625 5.75 -2.625 5.75 -5 6 C-3.35 4.02 -1.7 2.04 0 0 Z " fill="#409C64" transform="translate(63,36)"/>
<path d="M0 0 C2.97 0.495 2.97 0.495 6 1 C6 1.66 6 2.32 6 3 C4.02253397 3.73080266 2.01927511 4.39421747 0 5 C-0.66 4.67 -1.32 4.34 -2 4 C-1.34 2.68 -0.68 1.36 0 0 Z " fill="#FFFFFF" transform="translate(79,140)"/>
<path d="M0 0 C0.99 1.32 1.98 2.64 3 4 C0 6 0 6 -3 6 C-2.625 3.5625 -2.625 3.5625 -2 1 C-1.34 0.67 -0.68 0.34 0 0 Z " fill="#FFFFFF" transform="translate(51,128)"/>
<path d="M0 0 C0.99 0 1.98 0 3 0 C2.3125 1.9375 2.3125 1.9375 1 4 C-1.625 4.75 -1.625 4.75 -4 5 C-2.1875 2.5 -2.1875 2.5 0 0 Z " fill="#FFFFFF" transform="translate(36,111)"/>
<path d="M0 0 C2.31 0.33 4.62 0.66 7 1 C7 1.99 7 2.98 7 4 C2.25 3.125 2.25 3.125 0 2 C0 1.34 0 0.68 0 0 Z " fill="#FFFFFF" transform="translate(152,96)"/>
<path d="M0 0 C2.78388975 1.70625501 3.85384206 2.47626739 4.75 5.6875 C4.8325 6.450625 4.915 7.21375 5 8 C3.0625 7.375 3.0625 7.375 1 6 C0.25 2.875 0.25 2.875 0 0 Z " fill="#FFFFFF" transform="translate(25,92)"/>
<path d="M0 0 C0.80824219 0.19464844 1.61648437 0.38929687 2.44921875 0.58984375 C3.06410156 0.74582031 3.67898437 0.90179688 4.3125 1.0625 C4.3125 1.3925 4.3125 1.7225 4.3125 2.0625 C0.6825 2.0625 -2.9475 2.0625 -6.6875 2.0625 C-7.0175 1.4025 -7.3475 0.7425 -7.6875 0.0625 C-4.39053895 -1.03648702 -3.28255097 -0.80874444 0 0 Z " fill="#FFFFFF" transform="translate(88.6875,85.9375)"/>
<path d="M0 0 C1.98 0 3.96 0 6 0 C6 1.65 6 3.3 6 5 C5.34 4.01 4.68 3.02 4 2 C1.66924071 2.95865509 1.66924071 2.95865509 0 6 C0 4.02 0 2.04 0 0 Z " fill="#F59531" transform="translate(122,71)"/>
<path d="M0 0 C6.875 3.75 6.875 3.75 8 6 C5.03 5.01 2.06 4.02 -1 3 C-0.67 2.01 -0.34 1.02 0 0 Z " fill="#ECEDF4" transform="translate(75,59)"/>
<path d="M0 0 C1.98 0 3.96 0 6 0 C6 0.66 6 1.32 6 2 C4.68 2 3.36 2 2 2 C2 2.66 2 3.32 2 4 C1.01 4 0.02 4 -1 4 C-0.67 2.68 -0.34 1.36 0 0 Z " fill="#FFFFFF" transform="translate(75,52)"/>
<path d="M0 0 C2.475 0.495 2.475 0.495 5 1 C4.01 1.33 3.02 1.66 2 2 C2 3.98 2 5.96 2 8 C1.34 8 0.68 8 0 8 C0 5.36 0 2.72 0 0 Z " fill="#F3AB5A" transform="translate(92,10)"/>
<path d="M0 0 C1.98 0 3.96 0 6 0 C5.34 1.65 4.68 3.3 4 5 C2.68 4.34 1.36 3.68 0 3 C0 2.01 0 1.02 0 0 Z " fill="#FFFFFF" transform="translate(52,127)"/>
<path d="M0 0 C2.31 0.33 4.62 0.66 7 1 C5.35 2.32 3.7 3.64 2 5 C1.34 4.67 0.68 4.34 0 4 C0 2.68 0 1.36 0 0 Z " fill="#FFFFFF" transform="translate(93,68)"/>
<path d="M0 0 C0 0.99 0 1.98 0 3 C-3.3 2.67 -6.6 2.34 -10 2 C-10 1.67 -10 1.34 -10 1 C-3.375 0 -3.375 0 0 0 Z " fill="#F0F0F6" transform="translate(106,67)"/>
<path d="M0 0 C0.66 0.33 1.32 0.66 2 1 C2.73075648 3.3140622 3.40138258 5.64828869 4 8 C-0.875 3.25 -0.875 3.25 -2 1 C-1.34 0.67 -0.68 0.34 0 0 Z " fill="#F5F6F9" transform="translate(81,53)"/>
<path d="M0 0 C1.65 0.33 3.3 0.66 5 1 C5.33 1.99 5.66 2.98 6 4 C4.1875 4.625 4.1875 4.625 2 5 C1.01 4.34 0.02 3.68 -1 3 C-0.67 2.01 -0.34 1.02 0 0 Z " fill="#FFFFFF" transform="translate(91,47)"/>
<path d="M0 0 C2.475 0.495 2.475 0.495 5 1 C4.01 1.495 4.01 1.495 3 2 C3 2.99 3 3.98 3 5 C2.01 5 1.02 5 0 5 C0 3.35 0 1.7 0 0 Z " fill="#FFFFFF" transform="translate(113,136)"/>
<path d="M0 0 C0.33 0.99 0.66 1.98 1 3 C1.66 3 2.32 3 3 3 C3 3.99 3 4.98 3 6 C0.525 5.01 0.525 5.01 -2 4 C-1.34 2.68 -0.68 1.36 0 0 Z " fill="#FFFFFF" transform="translate(57,133)"/>
<path d="M0 0 C2.31 0 4.62 0 7 0 C7 0.66 7 1.32 7 2 C4.69 2.33 2.38 2.66 0 3 C0 2.01 0 1.02 0 0 Z " fill="#FFFFFF" transform="translate(15,87)"/>
<path d="M0 0 C4.875 4.75 4.875 4.75 6 7 C5.01 7.33 4.02 7.66 3 8 C0 2.25 0 2.25 0 0 Z " fill="#F5F6F8" transform="translate(93,76)"/>
<path d="M0 0 C2.64 0.66 5.28 1.32 8 2 C7.01 2.99 6.02 3.98 5 5 C3.35 3.35 1.7 1.7 0 0 Z " fill="#F6F6F9" transform="translate(97,73)"/>
<path d="M0 0 C-1.65 1.32 -3.3 2.64 -5 4 C-5.99 3.01 -6.98 2.02 -8 1 C-2.25 -1.125 -2.25 -1.125 0 0 Z " fill="#F7F6F9" transform="translate(81,74)"/>
<path d="M0 0 C2.97 0.33 5.94 0.66 9 1 C9 1.33 9 1.66 9 2 C4.545 2.495 4.545 2.495 0 3 C0 2.01 0 1.02 0 0 Z " fill="#F6F7F9" transform="translate(72,67)"/>
<path d="M0 0 C0.66 1.32 1.32 2.64 2 4 C2.66 3.34 3.32 2.68 4 2 C3.67 3.98 3.34 5.96 3 8 C1.68 7.67 0.36 7.34 -1 7 C-0.67 4.69 -0.34 2.38 0 0 Z " fill="#FFFFFF" transform="translate(90,55)"/>
</svg>
